<svg width="200" height="170" viewBox="0 0 200 170" fill="none" xmlns="http://www.w3.org/2000/svg">
<circle cx="80.2454" cy="80" r="80" fill="#FFDD94"/>
<path d="M112.745 168C110.412 130.667 118.645 59.7 170.245 74.5C221.845 89.3 153.412 143 112.745 168Z" fill="#D0E6A5"/>
<path d="M122.745 168C120.412 130.667 128.645 59.7 180.245 74.5C231.845 89.3 163.412 143 122.745 168Z" stroke="#0A0A0A"/>
<path d="M103.745 169C112.912 140.167 92.7454 117.5 68.7454 117.5C11.4392 117.5 71.2454 163.5 103.745 169Z" fill="#D0E6A5"/>
<path d="M113.745 169C122.912 140.167 102.745 117.5 78.7454 117.5C21.4392 117.5 81.2454 163.5 113.745 169Z" stroke="#0A0A0A"/>
</svg>
